# Blender 3.6.5
# www.blender.org
mtllib building.mtl
o Cube
v -3.600000 0.000000 3.600000
v -3.600000 19.000000 3.600000
v -3.600000 0.000000 -3.600000
v -3.600000 19.000000 -3.600000
v 3.600000 0.000000 3.600000
v 3.600000 19.000000 3.600000
v 3.600000 0.000000 -3.600000
v 3.600000 19.000000 -3.600000
vn -1.0000 -0.0000 -0.0000
vn -0.0000 -0.0000 -1.0000
vn 1.0000 -0.0000 -0.0000
vn -0.0000 -0.0000 1.0000
vn -0.0000 -1.0000 -0.0000
vn -0.0000 1.0000 -0.0000
vt -1.683260 -8.233044
vt 2.683260 -8.233044
vt 2.683260 -3.866522
vt -1.683260 -3.866522
vt 2.683260 0.499999
vt -1.683260 0.499999
vt 2.683260 4.866520
vt -1.683260 4.866520
vt 2.683260 9.233044
vt -1.683260 9.233044
vt -6.049782 0.499999
vt -6.049782 4.866520
vt 7.049782 0.499999
vt 7.049782 4.866520
s 0
usemtl Window
f 1/1/1 2/2/1 4/3/1 3/4/1
f 3/4/2 4/3/2 8/5/2 7/6/2
f 7/6/3 8/5/3 6/7/3 5/8/3
f 5/8/4 6/7/4 2/9/4 1/10/4
usemtl Whatever
f 3/11/5 7/6/5 5/8/5 1/12/5
f 8/5/6 4/13/6 2/14/6 6/7/6
